<svg width="256" height="256" viewBox="0 0 256 256" fill="none" xmlns="http://www.w3.org/2000/svg">
  <rect width="256" height="256" rx="56" fill="#111827"></rect>
  <rect x="28" y="28" width="200" height="200" rx="40" fill="#1F2937"></rect>
  <path d="M76 82C76 73.1634 83.1634 66 92 66H170C178.837 66 186 73.1634 186 82V98H76V82Z" fill="#22C55E"></path>
  <rect x="76" y="98" width="110" height="92" rx="12" fill="#F9FAFB"></rect>
  <rect x="90" y="116" width="82" height="10" rx="5" fill="#CBD5E1"></rect>
  <rect x="90" y="136" width="64" height="10" rx="5" fill="#CBD5E1"></rect>
  <rect x="90" y="156" width="72" height="10" rx="5" fill="#CBD5E1"></rect>
  <path d="M54 148L92 120V176L54 148Z" fill="#EF4444"></path>
  <circle cx="182" cy="182" r="22" fill="#22C55E"></circle>
  <path d="M171 182L178 189L194 173" stroke="#111827" stroke-width="8" stroke-linecap="round" stroke-linejoin="round"></path>
</svg>